<svg width="109" height="32" viewBox="0 0 109 32" fill="none" xmlns="http://www.w3.org/2000/svg">
    <path d="M12 19.1781V4.02863H17.6487V19.1781C17.6487 21.8281 18.9386 22.7694 20.647 22.7694C22.3211 22.7694 23.6457 21.8281 23.6457 19.1781V4.02863H29.2944V19.1781C29.2944 21.8281 30.6194 22.7694 32.2931 22.7694C34.0015 22.7694 35.2918 21.8281 35.2918 19.1781V4.02863H40.9404V19.1781C40.9404 25.2797 37.3839 27.9999 32.7814 27.9999C30.0268 27.9999 27.8301 26.9187 26.47 24.8616C25.1103 26.9187 22.9136 27.9999 20.1591 27.9999C15.5565 27.9999 12 25.2797 12 19.1781Z" fill="#C8102E"/>
    <path d="M67.1188 17.8906C67.5992 14.8798 66.9155 11.799 65.2066 9.27409C63.4977 6.74913 60.8918 4.96932 57.9181 4.29617C54.9445 3.62301 51.8261 4.10699 49.1964 5.64981C46.5667 7.19262 44.6228 9.67856 43.7596 12.6027C42.8965 15.5269 43.1787 18.6699 44.5491 21.3935C45.9194 24.1171 48.2751 26.2169 51.1376 27.2665C54.0001 28.3161 57.1549 28.2367 59.961 27.0446C62.7671 25.8524 65.0142 23.6367 66.2459 20.8477L59.707 20.8713C58.8895 21.62 57.8958 22.1495 56.8184 22.4106C55.7411 22.6717 54.6152 22.6558 53.5456 22.3644C52.4761 22.073 51.4977 21.5155 50.7017 20.7441C49.9057 19.9726 49.3179 19.0121 48.9931 17.9522L67.1188 17.8907V17.8906ZM55.2582 9.43359C56.5272 9.43037 57.77 9.79369 58.8374 10.4799C59.9049 11.1661 60.7514 12.1459 61.2753 13.3017L49.2689 13.3449C49.7846 12.1854 50.624 11.1995 51.6865 10.5056C52.749 9.81179 53.9892 9.43953 55.2582 9.43359Z" fill="#C8102E"/>
    <path d="M90.2068 4.02863H82.8891L77.6588 11.7054L72.4292 4.02863H65.1108L73.2761 16.0143L65.1108 27.9999H72.4292L77.6588 20.3232L82.8891 27.9999H90.2067L82.0409 16.0143L90.2068 4.02863ZM71.7693 26.7513H67.4726L74.7869 16.0143L67.4726 5.27726H71.7693L79.0836 16.0143L71.7693 26.7513Z" fill="#C8102E"/>
    <path d="M71.1087 6.52582H69.8337L76.2971 16.0142L69.8337 25.5026H71.1087L77.5721 16.0142L71.1087 6.52582Z" fill="#C8102E"/>
    <path d="M80.5942 16.0142V24.6311L77.6589 20.3229L80.5942 16.0142Z" fill="#9C182F"/>
    <path d="M92.8158 4.55155H91.9726V6.83812H91.2953V4.55155H90.4674V4.02863H92.8158V4.55155Z" fill="#C8102E"/>
    <path d="M93.9908 4.02863L94.618 5.98331L95.2431 4.02863H96.1346V6.83812H95.4554V6.18206L95.521 4.83906L94.8418 6.83812H94.3941L93.713 4.83713L93.7786 6.18206V6.83812H93.1013V4.02863H93.9908Z" fill="#C8102E"/>
</svg>
